HIERARCHY
ROOT hip
{
  OFFSET 0 0 0
  CHANNELS 6 Xposition Yposition Zposition Zrotation Yrotation Xrotation
  JOINT abdomen
  {
    OFFSET 0 20.6881 -0.73152
    CHANNELS 3 Zrotation Xrotation Yrotation
    JOINT chest
    {
      OFFSET 0 11.7043 -0.48768
      CHANNELS 3 Zrotation Xrotation Yrotation
      JOINT neck
      {
        OFFSET 0 22.1894 -2.19456
        CHANNELS 3 Zrotation Xrotation Yrotation
        JOINT head
        {
          OFFSET -0.24384 7.07133 1.2192
          CHANNELS 3 Zrotation Xrotation Yrotation
          JOINT leftEye
          {
            OFFSET 4.14528 8.04674 8.04672
            CHANNELS 3 Zrotation Xrotation Yrotation
            End Site
            {
              OFFSET 1 0 0
            }
          }
          JOINT rightEye
          {
            OFFSET -3.6576 8.04674 8.04672
            CHANNELS 3 Zrotation Xrotation Yrotation
            End Site
            {
              OFFSET 1 0 0
            }
          }
        }
      }
      JOINT rCollar
      {
        OFFSET -2.68224 19.2634 -4.8768
        CHANNELS 3 Zrotation Xrotation Yrotation
        JOINT rShldr
        {
          OFFSET -8.77824 -1.95073 1.46304
          CHANNELS 3 Zrotation Xrotation Yrotation
          JOINT rForeArm
          {
            OFFSET -28.1742 -1.7115 0.48768
            CHANNELS 3 Zrotation Xrotation Yrotation
            JOINT rHand
            {
              OFFSET -22.5879 0.773209 7.07136
              CHANNELS 3 Zrotation Xrotation Yrotation
              JOINT rThumb1
              {
                OFFSET -1.2192 -0.487915 3.41376
                CHANNELS 3 Zrotation Xrotation Yrotation
                JOINT rThumb2
                {
                  OFFSET -3.37035 -0.52449 3.41376
                  CHANNELS 3 Zrotation Xrotation Yrotation
                  End Site
                  {
                    OFFSET -1.78271 -1.18214 1.43049
                  }
                }
              }
              JOINT rIndex1
              {
                OFFSET -7.75947 0.938293 5.60832
                CHANNELS 3 Zrotation Xrotation Yrotation
                JOINT rIndex2
                {
                  OFFSET -2.54057 -0.884171 1.56538
                  CHANNELS 3 Zrotation Xrotation Yrotation
                  End Site
                  {
                    OFFSET -1.62519 -0.234802 1.16502
                  }
                }
              }
              JOINT rMid1
              {
                OFFSET -8.24714 1.18213 3.41376
                CHANNELS 3 Zrotation Xrotation Yrotation
                JOINT rMid2
                {
                  OFFSET -3.10165 -0.590103 1.0647
                  CHANNELS 3 Zrotation Xrotation Yrotation
                  End Site
                  {
                    OFFSET -2.48547 -0.328903 0.83742
                  }
                }
              }
              JOINT rRing1
              {
                OFFSET -8.82822 0.546677 1.51678
                CHANNELS 3 Zrotation Xrotation Yrotation
                JOINT rRing2
                {
                  OFFSET -2.60934 -0.819778 -0.0198488
                  CHANNELS 3 Zrotation Xrotation Yrotation
                  End Site
                  {
                    OFFSET -2.33842 -0.294052 0.168128
                  }
                }
              }
              JOINT rPinky1
              {
                OFFSET -8.27202 -0.0477905 -0.4584
                CHANNELS 3 Zrotation Xrotation Yrotation
                JOINT rPinky2
                {
                  OFFSET -1.82734 -0.647385 -0.700984
                  CHANNELS 3 Zrotation Xrotation Yrotation
                  End Site
                  {
                    OFFSET -1.69225 -0.51767 -0.607171
                  }
                }
              }
            }
          }
        }
      }
      JOINT lCollar
      {
        OFFSET 2.68224 19.2634 -4.8768
        CHANNELS 3 Zrotation Xrotation Yrotation
        JOINT lShldr
        {
          OFFSET 8.77824 -1.95073 1.46304
          CHANNELS 3 Zrotation Xrotation Yrotation
          JOINT lForeArm
          {
            OFFSET 28.1742 -1.7115 0.48768
            CHANNELS 3 Zrotation Xrotation Yrotation
            JOINT lHand
            {
              OFFSET 22.5879 0.773209 7.07136
              CHANNELS 3 Zrotation Xrotation Yrotation
              JOINT lThumb1
              {
                OFFSET 1.2192 -0.487915 3.41376
                CHANNELS 3 Zrotation Xrotation Yrotation
                JOINT lThumb2
                {
                  OFFSET 3.37035 -0.52449 3.41376
                  CHANNELS 3 Zrotation Xrotation Yrotation
                  End Site
                  {
                    OFFSET 1.78271 -1.18214 1.43049
                  }
                }
              }
              JOINT lIndex1
              {
                OFFSET 7.75947 0.938293 5.60832
                CHANNELS 3 Zrotation Xrotation Yrotation
                JOINT lIndex2
                {
                  OFFSET 2.54057 -0.884171 1.56538
                  CHANNELS 3 Zrotation Xrotation Yrotation
                  End Site
                  {
                    OFFSET 1.62519 -0.234802 1.16502
                  }
                }
              }
              JOINT lMid1
              {
                OFFSET 8.24714 1.18213 3.41376
                CHANNELS 3 Zrotation Xrotation Yrotation
                JOINT lMid2
                {
                  OFFSET 3.10165 -0.590103 1.0647
                  CHANNELS 3 Zrotation Xrotation Yrotation
                  End Site
                  {
                    OFFSET 2.48547 -0.328903 0.83742
                  }
                }
              }
              JOINT lRing1
              {
                OFFSET 8.82822 0.546677 1.51678
                CHANNELS 3 Zrotation Xrotation Yrotation
                JOINT lRing2
                {
                  OFFSET 2.60934 -0.819778 -0.0198488
                  CHANNELS 3 Zrotation Xrotation Yrotation
                  End Site
                  {
                    OFFSET 2.33842 -0.294052 0.168128
                  }
                }
              }
              JOINT lPinky1
              {
                OFFSET 8.27202 -0.0477905 -0.4584
                CHANNELS 3 Zrotation Xrotation Yrotation
                JOINT lPinky2
                {
                  OFFSET 1.82734 -0.647385 -0.700984
                  CHANNELS 3 Zrotation Xrotation Yrotation
                  End Site
                  {
                    OFFSET 1.69225 -0.51767 -0.607171
                  }
                }
              }
            }
          }
        }
      }
    }
  }
  JOINT rButtock
  {
    OFFSET -8.77824 4.35084 1.2192
    CHANNELS 3 Zrotation Xrotation Yrotation
    JOINT rThigh
    {
      OFFSET 0 -1.70687 -2.19456
      CHANNELS 3 Zrotation Xrotation Yrotation
      JOINT rShin
      {
        OFFSET 0 -36.8199 0.73152
        CHANNELS 3 Zrotation Xrotation Yrotation
        JOINT rFoot
        {
          OFFSET 0.73152 -45.1104 -5.12064
          CHANNELS 3 Zrotation Xrotation Yrotation
          End Site
          {
            OFFSET -1.1221 -3.69964 12.103
          }
        }
      }
    }
  }
  JOINT lButtock
  {
    OFFSET 8.77824 4.35084 1.2192
    CHANNELS 3 Zrotation Xrotation Yrotation
    JOINT lThigh
    {
      OFFSET 0 -1.70687 -2.19456
      CHANNELS 3 Zrotation Xrotation Yrotation
      JOINT lShin
      {
        OFFSET 0 -36.8199 0.73152
        CHANNELS 3 Zrotation Xrotation Yrotation
        JOINT lFoot
        {
          OFFSET -0.73152 -45.1104 -5.12064
          CHANNELS 3 Zrotation Xrotation Yrotation
          End Site
          {
            OFFSET 1.1221 -3.69964 12.103
          }
        }
      }
    }
  }
}
MOTION
Frames:	4
Frame Time:	0.03333
-62.09966686461121 2.315322160720825 20.220208974555135 -20.361065715551376 -83.74258875846863 346.9703221321106 -17.352077811956406 14.342639297246933 2.3132129944860935 5.952811539173126 -10.387117266654968 0.5279326625168324 -5.945207476615906 17.94187143445015 -15.629392862319946 9.740363582968712 -26.61504775285721 -30.619261264801025 4.479759112000465 -3.718787580728531 -5.997820347547531 5.282688774168491 2.5714609399437904 5.980196893215179 1.1874347180128098 -0.7984128221869469 -2.347317449748516 21.015583723783493 -12.8151735663414 84.8610270023346 -6.953862905502319 -9.147878363728523 21.453939825296402 4.988198988139629 38.45619320869446 14.492680728435516 0.056223333813250065 9.547614008188248 -1.35328508913517 -0.03787430003285408 7.643275782465935 1.49198479950428 -3.143291138112545 2.5487476587295532 -7.890503033995628 5.7560983300209045 5.981552079319954 1.102952091023326 -5.770021677017212 -3.501555472612381 2.318600881844759 1.7425173707306385 1.926656886935234 -2.562913913279772 7.027018815279007 -1.02058757096529 -0.8259519003331661 10.137671828269958 -5.0266652181744576 0.18694862723350525 -3.5551463440060616 -0.43537382036447525 2.7809768356382847 2.375068925321102 -2.2428886592388153 6.810498833656311 1.6526982374489307 -11.17941901087761 -4.094472527503967 -115.99030494689941 58.32168459892273 52.650099992752075 16.0953851044178 -40.796240866184235 -87.07637071609497 11.367018073797226 -61.270912885665894 21.17896243929863 3.129466027021408 3.851967304944992 -4.437787234783173 -5.393549837172031 0.189601331949234 -1.8655772879719734 1.2554515153169632 1.7058535851538181 -1.6841632314026356 -11.830250322818756 5.266628712415695 -5.758197158575058 1.055179014801979 1.6849464364349842 2.1332305669784546 0.3489745035767555 -2.4693086743354797 -3.4334682673215866 -7.204006388783455 0.24826861917972565 2.960621304810047 -5.800211280584335 0.6732294335961342 2.9132142663002014 -0.7014717534184456 3.5207919403910637 -0.864872932434082 -5.386413484811783 0.37446118891239166 0.6440471671521664 -0.02598938997834921 2.77200099080801 -1.2459340319037437 -42.53264665603638 -57.361732721328735 -26.432413458824158 -11.531481742858887 56.464077830314636 14.189349710941315 -4.216566011309624 8.29154022037983 5.945717096328735 5.938438922166824 2.23739180713892 1.7749419249594212 -7.5479856133461 -4.291669875383377 -12.85524308681488 -15.133815854787827 51.81643724441528 -0.2244623377919197 15.872757732868195 -31.386375725269318 34.250154197216034
-62.98931220266968 1.8725422620773315 20.044864730909467 -15.4523965716362 -82.73388504981995 335.10367155075073 -15.792705863714218 11.755204796791077 3.6956877261400223 6.043295860290527 -10.36634624004364 1.128371972590685 -4.878477193415165 16.428028643131256 -13.561987727880478 8.982027992606163 -25.507697761058807 -29.35218036174774 4.485516473650932 -3.8279125839471817 -5.269745774567127 5.160579867660999 2.0167237892746925 5.709985792636871 -0.1308012753725052 0.3095366433262825 -1.1717004608362913 23.07713359594345 -9.7647113353014 79.20654952526093 -7.307744175195694 -7.58801557123661 24.068743586540222 6.887570768594742 37.33696907758713 11.0035640001297 0.14575815293937922 8.262222334742546 -1.3672707974910736 -1.669000368565321 5.93399316072464 1.5691224485635757 -1.904008649289608 2.648239340633154 -9.251093789935112 5.299872346222401 6.0299089550971985 0.49461367540061474 -6.128278970718384 -3.5884221643209457 1.8409576267004013 1.5456475876271725 4.542434960603714 -2.1197626926004887 8.079533725976944 -2.038208283483982 -0.876451525837183 10.799789875745773 -3.614300452172756 0.08202865719795227 -2.8574320301413536 0.4077383503317833 3.8390930369496346 2.3865764401853085 -2.1439359337091446 8.836922496557236 1.4163278974592686 -10.449412912130356 -3.169606290757656 -116.22667193412781 59.731292724609375 52.66501843929291 19.21504095196724 -39.72830057144165 -85.89037835597992 8.5893814265728 -58.48150134086609 19.283861070871353 3.8474564999341965 3.5446595773100853 -3.4006383642554283 -4.013162367045879 -1.6860486567020416 -2.0597611740231514 -0.46178922057151794 0.8844971470534801 -2.998732477426529 -12.568885087966919 5.208062343299389 -4.9368977174162865 0.6217984110116959 1.6822374053299427 2.4687299877405167 -0.5684026703238487 -1.6161305084824562 -1.5395718812942505 -5.43107695877552 1.7530475556850433 4.513303823769093 -8.10855120420456 0.5493868142366409 1.7039009369909763 0.9587237611413002 3.058597706258297 -1.5791039541363716 -6.296400502324104 0.5754082649946213 -0.06791369989514351 0.6179848546162248 2.2873754426836967 1.716853491961956 -39.12358582019806 -57.345537543296814 -24.24312472343445 -8.517601490020752 58.275851011276245 18.460499346256256 -2.6186131685972214 6.646604463458061 7.529813647270203 3.9627646654844284 1.53382558375597 1.2795660831034184 -2.809549570083618 -5.920899957418442 -9.091250896453857 -10.036631673574448 53.397696018218994 -3.9025085046887398 17.44027018547058 -29.442012906074524 31.434440910816193
-63.782706649042666 1.6747121810913086 19.89029655046761 -6.784826070070267 -85.7916784286499 330.98339080810547 -15.562171339988708 11.756603568792343 5.69062627851963 4.184709750115871 -8.875392079353333 0.12817958369851112 -6.648948043584824 14.619617611169815 -10.367255508899689 8.437467142939568 -23.301111459732056 -28.653365671634674 4.097473919391632 -1.388361006975174 -3.337987996637821 3.982894979417324 1.666196621954441 5.9315382689237595 -0.060156919062137604 0.3122564032673836 -1.0401878971606493 20.429499596357346 -11.700436770915985 80.87042033672333 -7.861885204911232 -5.68226583302021 17.69913822412491 7.013049870729446 41.32165610790253 9.332247376441956 -0.1863033464178443 4.842564761638641 1.086772084236145 -0.26545168831944466 4.677283689379692 -0.46681366860866547 -1.2299557775259018 2.586658336222172 -8.89225848019123 5.2690339833498 5.72291873395443 2.339901812374592 -5.013746023178101 -1.4854375272989273 2.983267195522785 3.0021439120173454 5.661294311285019 -1.8633703328669071 6.865500211715698 -0.9763606265187263 -0.4534730315208435 10.559282898902893 -0.47264319844543934 -0.5207612738013268 -1.3384159281849861 0.5472239479422569 2.7904832549393177 2.4982800520956516 -1.1172235384583473 10.746110826730728 1.9054488278925419 -8.371492177248001 -3.0151432380080223 -114.02265787124634 59.676135778427124 54.809530377388 22.81483232975006 -36.858162581920624 -82.56174087524414 6.444495320320129 -59.28042411804199 14.485311359167099 4.805448353290558 2.163513880223036 -4.1643789410591125 -2.615925259888172 -3.948286771774292 -3.722917176783085 -2.998843789100647 -0.8117382042109966 -3.4681901335716248 -12.243313193321228 4.609482139348984 -3.323826603591442 1.1024127155542374 -0.9340683929622173 2.7803778648376465 -1.869492307305336 -0.9430713951587677 1.1823713779449463 -4.2922525852918625 1.5144550055265427 2.460481859743595 -8.358756378293037 4.059450924396515 0.21113963797688484 1.067037396132946 1.753479391336441 0.09921155869960785 -5.447658374905586 0.7468932867050171 0.5689379386603832 0.7817132212221622 1.538064144551754 2.753177247941494 -33.12102198600769 -55.47544240951538 -20.8296999335289 -5.886965990066528 59.322524070739746 17.880163192749023 -1.1179956793785095 5.3542182594537735 9.039902687072754 3.476824164390564 -0.2055836096405983 -0.08920541033148766 0.722774863243103 -6.256310194730759 -9.906076490879059 -5.405482649803162 52.526493072509766 -3.9541537687182426 17.145355939865112 -25.787964463233948 31.603243052959442
-64.45998504851013 1.585978627204895 19.716082217171788 1.8060949444770813 -82.5382661819458 327.41324186325073 -15.876239240169525 10.427336320281029 7.789893373847008 2.9990003630518913 -8.053854256868362 -0.3256136365234852 -8.575655221939087 14.248523265123367 -9.56273429095745 8.664905056357384 -22.990345358848572 -26.99362814426422 3.9917734265327454 0.3197629004716873 -3.4364964812994003 3.476743698120117 2.4824022129178047 4.469197914004326 0.26113517582416534 0.17679814249277115 -0.3706867340952158 18.868967592716217 -15.649133920669556 78.44761848449707 -7.747721001505852 -5.068178102374077 14.100915938615799 6.917595416307449 42.94782042503357 10.006729066371918 -0.5152729293331504 3.732645884156227 2.939821779727936 -0.3959880955517292 3.882938101887703 -1.4851827174425125 -1.0425357520580292 3.290799558162689 -7.750003561377525 6.060086488723755 4.446399807929993 3.846536837518215 -3.3706583082675934 -2.0947784185409546 4.109253846108913 2.9232460632920265 6.685292646288872 -1.7558466084301472 6.255226582288742 -1.146351657807827 -0.17899302765727043 10.2604378759861 0.8479662146419287 -0.46664033085107803 -0.09672615677118301 1.0540930554270744 1.9728024490177631 2.8694868832826614 -0.6143361702561378 8.987281769514084 0.4444448836147785 -6.422505229711533 -2.3155084624886513 -114.1857361793518 58.385446071624756 55.96166789531708 27.645286917686462 -36.19855374097824 -81.32221698760986 6.443038880825043 -63.119840025901794 14.841506034135818 4.132648408412933 1.3435419648885727 -4.815628007054329 -1.3759085163474083 -4.683904051780701 -4.696174152195454 -3.733513578772545 -1.0537019558250904 -3.9781250059604645 -12.14612603187561 4.831048361957073 -2.9539580270648003 0.6690867617726326 -2.4476288817822933 1.915205866098404 -1.8951037153601646 -0.438738651573658 2.4662616848945618 -2.741518020629883 1.509455367922783 2.4054566770792007 -8.438172563910484 5.753175392746925 -0.4018155299127102 1.2258918955922127 0.9069192409515381 0.9068464860320091 -5.327501446008682 -0.7316586747765541 0.8755586855113506 0.42109126690775156 0.7146112248301506 2.360973246395588 -32.56177604198456 -54.712278842926025 -23.147115111351013 -6.118735671043396 60.00490486621857 19.60768148303032 0.5162031948566437 5.264177843928337 9.64233085513115 2.4846140295267105 -1.2264018505811691 -0.32289622351527214 -0.6330549716949463 -3.6116279661655426 -11.42673209309578 -3.6934085190296173 49.20643329620361 -0.5936965718865395 18.340841978788376 -25.992721617221832 33.474588096141815
